<svg xmlns="http://www.w3.org/2000/svg" width="1116.176" height="515.875" viewBox="0 0 1116.176 515.875"><defs><style>.a{opacity:0.3;}.b{opacity:0.15;}.c{fill:#526cfd;}.d{fill:#1ce8b5;}.e{opacity:0.45;}.f{opacity:0.6;}.g{fill:#ffd500;}.h{fill:#ff6c00;}</style></defs><g class="a" transform="translate(-491.764 -1654.531)"><g transform="translate(264.573 -76)"><g class="b" transform="translate(-241.78 22.905)"><path class="c" d="M12043.96,174.83h-15.493c0,17.714-13.858,32.072-31,32.064v32.08c34.229,0,62-28.718,62-64.144Z" transform="translate(-10684.469 1817.528)"/><path class="d" d="M12043.96,174.83h-15.493c0,17.714-13.858,32.072-31,32.064v32.08c34.229,0,62-28.718,62-64.144Z" transform="translate(-10589.322 1785.291)"/><path class="c" d="M12043.96,174.83h-15.493c0,17.714-13.858,32.072-31,32.064v32.08c34.229,0,62-28.718,62-64.144Z" transform="translate(-10622.469 1745.17)"/></g><g class="a" transform="translate(-268.78 136.905)"><path class="c" d="M12043.96,174.83h-15.493c0,17.714-13.858,32.072-31,32.064v32.08c34.229,0,62-28.718,62-64.144Z" transform="translate(-10684.469 1817.528)"/><path class="d" d="M12043.96,174.83h-15.493c0,17.714-13.858,32.072-31,32.064v32.08c34.229,0,62-28.718,62-64.144Z" transform="translate(-10589.322 1785.291)"/><path class="c" d="M12043.96,174.83h-15.493c0,17.714-13.858,32.072-31,32.064v32.08c34.229,0,62-28.718,62-64.144Z" transform="translate(-10622.469 1745.17)"/></g><g class="e" transform="translate(-102.78 22.905)"><path class="c" d="M12043.96,174.83h-15.493c0,17.714-13.858,32.072-31,32.064v32.08c34.229,0,62-28.718,62-64.144Z" transform="translate(-10684.469 1817.528)"/><path class="d" d="M12043.96,174.83h-15.493c0,17.714-13.858,32.072-31,32.064v32.08c34.229,0,62-28.718,62-64.144Z" transform="translate(-10613.322 1809.291)"/><path class="c" d="M12043.96,174.83h-15.493c0,17.714-13.858,32.072-31,32.064v32.08c34.229,0,62-28.718,62-64.144Z" transform="translate(-10622.469 1745.17)"/></g><g class="f" transform="translate(-162.78 189.905)"><path class="c" d="M12043.96,174.83h-15.493c0,17.714-13.858,32.072-31,32.064v32.08c34.229,0,62-28.718,62-64.144Z" transform="translate(-10684.469 1817.528)"/><path class="c" d="M12043.96,174.83h-15.493c0,17.714-13.858,32.072-31,32.064v32.08c34.229,0,62-28.718,62-64.144Z" transform="translate(-10602.322 1809.291)"/><path class="d" d="M12043.96,174.83h-15.493c0,17.714-13.858,32.072-31,32.064v32.08c34.229,0,62-28.718,62-64.144Z" transform="translate(-10622.469 1745.17)"/></g></g><g transform="translate(123.544 8)"><path class="g" d="M12217.648,399.622a85.669,85.669,0,1,1,85.7-85.631,85.677,85.677,0,0,1-85.7,85.631m0,31.914a117.5,117.5,0,1,0-.022,0Z" transform="translate(-11731.921 1579.604)"/><path class="h" d="M12244.451,479.936A139.25,139.25,0,1,1,12383.705,340.7a139.271,139.271,0,0,1-139.254,139.239m0,26.617A165.866,165.866,0,1,0,12078.58,340.7,165.844,165.844,0,0,0,12244.451,506.553Z" transform="translate(-11641.062 1471.711)"/></g></g></svg>