<svg xmlns="http://www.w3.org/2000/svg" width="224" height="101.149" viewBox="0 0 224 101.149"><defs><style>.a{fill:#ffd500;}.b{fill:#1ce8b5;}.c{fill:#526cfd;}.d{fill:#ff6c00;}</style></defs><g transform="translate(0 -65.788)"><g transform="translate(143.889 77.672)"><path class="a" d="M12113.516,220.308a10.1,10.1,0,1,1,9.756-10.085,9.927,9.927,0,0,1-9.756,10.085m0,3.759a13.856,13.856,0,1,0-13.377-13.845,13.622,13.622,0,0,0,13.377,13.845Z" transform="translate(-12056.051 -186.796)"/><path class="b" d="M4.526,0A4.606,4.606,0,0,1,9.052,4.683,4.606,4.606,0,0,1,4.526,9.365,4.606,4.606,0,0,1,0,4.683,4.606,4.606,0,0,1,4.526,0Z" transform="translate(52.942 18.744)"/><path class="c" d="M12101.216,284.935c-12.5,0-22.637-10.487-22.637-23.423s10.138-23.423,22.637-23.423,22.641,10.487,22.641,23.423S12113.716,284.92,12101.216,284.935Zm0-37.475a14.061,14.061,0,1,0,13.585,14.053A13.824,13.824,0,0,0,12101.216,247.46Z" transform="translate(-12043.747 -209.98)"/><path class="d" d="M12101.219,217.906c-10.5,0-19.008-8.8-19.008-19.665s8.513-19.663,19.008-19.662,19.008,8.8,19.008,19.665-8.519,19.65-19.008,19.662m0,3.759c12.5,0,22.644-10.488,22.64-23.424s-10.135-23.422-22.646-23.421-22.636,10.488-22.634,23.424S12088.719,221.669,12101.219,221.665Z" transform="translate(-12043.747 -174.82)"/><path class="a" d="M0,0H27.166V9.37H0Z" transform="translate(27.185 74.955) rotate(180)"/><path class="d" d="M0,0H9.057V42.158H0Z" transform="translate(9.072 18.74)"/><path class="c" d="M12011.047,174.83h-4.525a9.208,9.208,0,0,1-9.055,9.365v9.37c10,0,18.109-8.388,18.109-18.735Z" transform="translate(-11997.467 -174.826)"/></g><g transform="translate(63.366 77.858)"><path class="c" d="M11865.155,212.542c9.959,0,18.033,8.354,18.033,18.66s-8.074,18.66-18.033,18.66-18.038-8.354-18.038-18.66,8.077-18.66,18.038-18.66m0-3.732c-11.949,0-21.639,10.02-21.639,22.38s9.692,22.378,21.636,22.377,21.624-10.02,21.624-22.38-9.676-22.379-21.626-22.377Z" transform="translate(-11829.105 -193.895)"/><path class="b" d="M11846,178.967c17.923,0,32.448,15.029,32.448,33.567S11863.925,246.1,11846,246.1s-32.443-15.029-32.443-33.567c.023-18.527,14.532-33.542,32.44-33.564m0-3.727c-19.907,0-36.045,16.7-36.045,37.293s16.138,37.293,36.045,37.293,36.046-16.7,36.046-37.293S11865.909,175.24,11846,175.24Z" transform="translate(-11809.957 -175.24)"/><path class="a" d="M11884.319,246.118a3.734,3.734,0,1,1-3.6,3.732,3.674,3.674,0,0,1,3.6-3.732m0-3.728a7.464,7.464,0,1,0,7.213,7.46A7.336,7.336,0,0,0,11884.319,242.39Z" transform="translate(-11848.275 -212.556)"/></g><path class="d" d="M.038.735,102.376,0l-.038,5.147L0,5.882Z" transform="matrix(0.221, -0.975, 0.975, 0.221, 38.3, 165.639)"/><g transform="translate(0 79.142)"><path class="d" d="M11742.315,339.192v-.822l-.819.822Z" transform="translate(-11707.526 -267.178)"/><path class="d" d="M11662.4,178.13v.813l.776-.813Z" transform="translate(-11662.398 -178.13)"/><path class="d" d="M11697.185,182.74l-34.786,36.013v2.106l34.786-36.013Z" transform="translate(-11662.398 -180.692)"/><path class="d" d="M11697.185,199.51l-34.786,36.013v2.106l34.786-36.013Z" transform="translate(-11662.398 -190.011)"/><path class="d" d="M11697.185,216.27l-34.786,36.013v2.106l34.786-36.013Z" transform="translate(-11662.398 -199.325)"/><path class="d" d="M11697.185,233.04l-34.786,36.013v2.106l34.786-36.014Z" transform="translate(-11662.398 -208.645)"/><path class="d" d="M11697.185,249.8l-34.786,36.013v2.106l34.786-36.013Z" transform="translate(-11662.398 -217.958)"/><path class="d" d="M11701.4,266.57l-31.6,32.721h2.015l29.59-30.615Z" transform="translate(-11666.622 -227.278)"/><path class="d" d="M11710.936,283.33l-24.435,25.275h2.059l22.376-23.169Z" transform="translate(-11676.152 -236.592)"/><path class="d" d="M11720.52,300.1l-17.221,17.825h2.018l15.2-15.719Z" transform="translate(-11685.737 -245.911)"/><path class="d" d="M11722.058,327.238l7.988-8.273V316.86L11720,327.238Z" transform="translate(-11695.265 -255.225)"/><path class="d" d="M11670.352,178.13l-7.953,8.259V188.5l10.007-10.365Z" transform="translate(-11662.398 -178.13)"/><path class="d" d="M11738.818,336.558l.812-.822V333.63l-2.831,2.928Z" transform="translate(-11704.851 -264.544)"/><path class="d" d="M11663.175,178.13l-.776.813v2.106l2.791-2.919Z" transform="translate(-11662.398 -178.13)"/><path class="d" d="M11691.944,178.13l-29.546,30.611v2.11l31.608-32.721Z" transform="translate(-11662.398 -178.13)"/><path class="d" d="M11684.772,178.13l-22.374,23.165V203.4l24.394-25.271Z" transform="translate(-11662.398 -178.13)"/><path class="d" d="M11677.559,178.13l-15.16,15.714v2.11l17.224-17.824Z" transform="translate(-11662.398 -178.13)"/></g></g></svg>