<svg xmlns="http://www.w3.org/2000/svg" xmlns:xlink="http://www.w3.org/1999/xlink" width="336.22" height="273.141" viewBox="0 0 336.22 273.141"><defs><style>.a{fill:none;}.b{opacity:0.8;}.c{clip-path:url(#a);}.d{fill:#ffd500;}.e{fill:#ff6c00;}.f{clip-path:url(#b);}.g,.h{fill:#526cfd;}.h{opacity:0.62;}</style><clipPath id="a"><rect class="a" width="202.188" height="176.419"/></clipPath><clipPath id="b"><rect class="a" width="157.146" height="136.502"/></clipPath></defs><g class="b" transform="translate(-520.864 -988.099)"><g class="c" transform="translate(654.896 1082.024)"><path class="d" d="M12148.108,279.342a34.972,34.972,0,1,1,34.985-34.957,34.975,34.975,0,0,1-34.985,34.957m0,13.028a47.965,47.965,0,1,0-.009,0Z" transform="translate(-11993.95 -196.37)"/><path class="e" d="M12158.58,321.982a67.162,67.162,0,1,1,67.166-67.157,67.173,67.173,0,0,1-67.166,67.157m0,12.838a80,80,0,1,0-80-79.995A79.99,79.99,0,0,0,12158.58,334.82Z" transform="translate(-12078.578 -158.401)"/></g><g class="f" transform="translate(578.001 988.099)"><path class="g" d="M12043.96,174.83h-15.493c0,17.714-13.858,32.072-31,32.064v32.08c34.229,0,62-28.718,62-64.144Z" transform="translate(-11997.469 -102.472)"/><path class="g" d="M12043.96,174.83h-15.493c0,17.714-13.858,32.072-31,32.064v32.08c34.229,0,62-28.718,62-64.144Z" transform="translate(-11902.322 -134.71)"/><path class="g" d="M12043.96,174.83h-15.493c0,17.714-13.858,32.072-31,32.064v32.08c34.229,0,62-28.718,62-64.144Z" transform="translate(-11935.469 -174.83)"/></g><g transform="translate(130.002 -75)"><path class="h" d="M31.749,43.807H21.169c0-12.1-9.466-21.9-21.17-21.9V0C23.375,0,42.342,19.613,42.342,43.807Z" transform="translate(390.863 1240.991)"/><path class="h" d="M31.749,43.807H21.169c0-12.1-9.466-21.9-21.17-21.9V0C23.375,0,42.342,19.613,42.342,43.807Z" transform="translate(451.658 1262.035)"/><path class="h" d="M31.749,43.807H21.169c0-12.1-9.466-21.9-21.17-21.9V0C23.375,0,42.342,19.613,42.342,43.807Z" transform="translate(425.937 1292.432)"/></g></g></svg>