<svg xmlns="http://www.w3.org/2000/svg" width="64.281" height="48" viewBox="0 0 64.281 48"><defs><style>.a{fill:#ff6c00;}.b{fill:#526cfd;}.c{fill:#1ce8b5;}.d{fill:#ffd500;}</style></defs><g transform="translate(-39.574 -190.599)"><g transform="translate(39.574 196.937)"><path class="a" d="M11741.887,338.76v-.39l-.389.39Z" transform="translate(-11725.378 -304.586)"/><path class="a" d="M11662.4,178.13v.386l.367-.386Z" transform="translate(-11662.398 -178.13)"/><path class="a" d="M11678.906,182.74l-16.508,17.09v1l16.508-17.09Z" transform="translate(-11662.398 -181.768)"/><path class="a" d="M11678.906,199.51,11662.4,216.6v1l16.508-17.09Z" transform="translate(-11662.398 -195.002)"/><path class="a" d="M11678.906,216.27l-16.508,17.09v1l16.508-17.09Z" transform="translate(-11662.398 -208.229)"/><path class="a" d="M11678.906,233.04l-16.508,17.09v1l16.508-17.09Z" transform="translate(-11662.398 -221.463)"/><path class="a" d="M11678.906,249.8l-16.508,17.09v1l16.508-17.09Z" transform="translate(-11662.398 -234.69)"/><path class="a" d="M11684.8,266.57l-15,15.528h.957l14.041-14.528Z" transform="translate(-11668.292 -247.924)"/><path class="a" d="M11698.1,283.33l-11.6,11.994h.978l10.619-10.995Z" transform="translate(-11681.589 -261.15)"/><path class="a" d="M11711.471,300.1l-8.172,8.459h.959l7.213-7.459Z" transform="translate(-11694.965 -274.385)"/><path class="a" d="M11720.977,321.785l3.79-3.926v-1l-4.769,4.925Z" transform="translate(-11708.262 -287.611)"/><path class="a" d="M11666.172,178.13l-3.773,3.919v1l4.748-4.919Z" transform="translate(-11662.398 -178.13)"/><path class="a" d="M11737.758,335.019l.386-.39v-1l-1.344,1.389Z" transform="translate(-11721.639 -300.846)"/><path class="a" d="M11662.766,178.13l-.367.386v1l1.324-1.385Z" transform="translate(-11662.398 -178.13)"/><path class="a" d="M11676.418,178.13l-14.02,14.526v1l15-15.528Z" transform="translate(-11662.398 -178.13)"/><path class="a" d="M11673.016,178.13l-10.617,10.993v1l11.576-11.992Z" transform="translate(-11662.398 -178.13)"/><path class="a" d="M11669.592,178.13l-7.193,7.457v1l8.174-8.459Z" transform="translate(-11662.398 -178.13)"/></g><path class="a" d="M.018.349,48.582,0l-.018,2.442L0,2.791Z" transform="matrix(0.221, -0.975, 0.975, 0.221, 57.749, 237.983)"/><g transform="translate(69.644 196.327)"><path class="b" d="M11853.787,210.581a8.86,8.86,0,1,1-8.561,8.855,8.709,8.709,0,0,1,8.561-8.855m0-1.771a10.626,10.626,0,1,0,10.26,10.619,10.449,10.449,0,0,0-10.26-10.619Z" transform="translate(-11836.681 -201.732)"/><path class="c" d="M11827.064,177.009a15.938,15.938,0,1,1-15.395,15.928,15.671,15.671,0,0,1,15.395-15.928m0-1.769c-9.447,0-17.105,7.923-17.105,17.7s7.658,17.7,17.105,17.7,17.105-7.923,17.105-17.7S11836.512,175.24,11827.064,175.24Z" transform="translate(-11809.959 -175.24)"/><path class="d" d="M11880.53,244.159a1.772,1.772,0,1,1-1.711,1.771,1.743,1.743,0,0,1,1.711-1.771m0-1.769a3.542,3.542,0,1,0,3.423,3.54A3.482,3.482,0,0,0,11880.53,242.39Z" transform="translate(-11863.424 -228.233)"/></g></g></svg>